<svg width="1025" height="266" viewBox="0 0 1025 266" fill="none" xmlns="http://www.w3.org/2000/svg">
<g clip-path="url(#clip0)">
<path d="M128.935 266C200.145 266 257.871 206.454 257.871 133C257.871 59.5461 200.145 0 128.935 0C57.7264 0 0 59.5461 0 133C0 206.454 57.7264 266 128.935 266Z" fill="#F6C863"/>
<path d="M58.305 74.6899H199.576C200.645 74.6899 201.669 75.1278 202.425 75.9072C203.181 76.6867 203.605 77.7438 203.605 78.8461V174.276H54.2758V78.8461C54.2758 77.7438 54.7003 76.6867 55.4559 75.9072C56.2116 75.1278 57.2364 74.6899 58.305 74.6899V74.6899Z" fill="#575B6D"/>
<path d="M196.83 81.6786V167.287H61.0509V81.6786H196.83Z" fill="#69B0EE"/>
<path d="M211.974 174.276C212.18 174.262 212.387 174.294 212.58 174.368C212.774 174.442 212.95 174.558 213.098 174.706C213.246 174.855 213.362 175.034 213.439 175.232C213.515 175.43 213.551 175.642 213.543 175.855C213.092 179.918 211.173 183.655 208.168 186.323C204.512 189.586 199.826 191.36 194.991 191.31H62.8802C53.1818 191.31 45.1999 184.529 44.3276 175.855C44.3199 175.642 44.3555 175.43 44.4322 175.232C44.5088 175.034 44.6248 174.855 44.7727 174.706C44.9205 174.558 45.097 174.442 45.2906 174.368C45.4843 174.294 45.6908 174.262 45.897 174.276H211.974Z" fill="#62667C"/>
<path d="M118.3 147.418L135.412 101.545H139.583L122.41 147.418H118.3Z" fill="#EEEFEE"/>
<path d="M85.8972 122.774L114.356 107.647V112.011L90.3717 124.419V124.546L114.356 136.948V141.312L85.8972 126.192V122.774Z" fill="#EEEFEE"/>
<path d="M171.984 126.254L143.525 141.312V136.948L167.689 124.548V124.421L143.525 112.011V107.647L171.986 122.707L171.984 126.254Z" fill="#EEEFEE"/>
</g>
<path d="M284.753 185.164C282.833 184.684 281.273 183.644 280.073 182.044C278.953 180.364 278.393 178.484 278.393 176.404V172.204C278.393 170.604 279.033 169.364 280.313 168.484C281.673 167.604 283.113 167.444 284.633 168.004C290.153 169.844 295.393 170.764 300.353 170.764C305.233 170.764 308.833 169.284 311.153 166.324C313.473 163.364 314.633 158.324 314.633 151.204V105.244C314.633 103.404 315.273 101.804 316.553 100.444C317.913 99.0845 319.513 98.4045 321.353 98.4045H328.793C330.633 98.4045 332.233 99.0845 333.593 100.444C334.953 101.804 335.633 103.404 335.633 105.244V153.964C335.633 165.804 333.073 174.324 327.953 179.524C322.833 184.644 314.593 187.204 303.233 187.204C296.753 187.204 290.593 186.524 284.753 185.164ZM377.088 150.964C367.008 147.764 359.728 143.804 355.248 139.084C350.768 134.284 348.528 128.444 348.528 121.564C348.528 114.044 351.128 108.124 356.328 103.804C361.608 99.4045 369.128 97.2045 378.888 97.2045C386.248 97.2045 392.928 98.0445 398.928 99.7245C400.848 100.284 402.368 101.444 403.488 103.204C404.688 104.884 405.288 106.764 405.288 108.844V112.324C405.288 113.924 404.608 115.164 403.248 116.044C401.888 116.924 400.448 117.084 398.928 116.524C392.128 114.124 385.848 112.924 380.088 112.924C372.728 112.924 369.048 115.804 369.048 121.564C369.048 126.444 372.248 129.924 378.648 132.004C389.688 135.364 397.328 139.284 401.568 143.764C405.888 148.244 408.048 154.124 408.048 161.404C408.048 178.604 397.208 187.204 375.528 187.204C368.648 187.204 362.408 186.124 356.808 183.964C354.888 183.244 353.368 182.004 352.248 180.244C351.208 178.404 350.688 176.404 350.688 174.244V170.404C350.688 168.964 351.328 167.884 352.608 167.164C353.888 166.364 355.168 166.284 356.448 166.924C362.288 169.804 368.248 171.244 374.328 171.244C378.568 171.244 381.768 170.444 383.928 168.844C386.168 167.164 387.288 164.804 387.288 161.764C387.288 159.124 386.528 156.964 385.008 155.284C383.488 153.604 380.848 152.164 377.088 150.964ZM478.088 114.964V169.444C478.088 170.164 478.448 170.604 479.168 170.764C480.768 171.084 482.688 171.244 484.928 171.244C493.008 171.244 498.968 168.884 502.808 164.164C506.728 159.444 508.688 151.724 508.688 141.004C508.688 131.404 506.728 124.364 502.808 119.884C498.888 115.404 492.928 113.164 484.928 113.164C482.688 113.164 480.768 113.324 479.168 113.644C478.448 113.804 478.088 114.244 478.088 114.964ZM464.888 186.244C462.968 186.084 461.368 185.284 460.088 183.844C458.808 182.324 458.168 180.564 458.168 178.564V105.844C458.168 103.844 458.808 102.124 460.088 100.684C461.368 99.1645 462.968 98.3245 464.888 98.1645C471.128 97.5245 477.288 97.2045 483.368 97.2045C497.688 97.2045 508.728 101.004 516.488 108.604C524.248 116.204 528.128 127.004 528.128 141.004C528.128 156.204 524.248 167.724 516.488 175.564C508.728 183.324 497.688 187.204 483.368 187.204C477.288 187.204 471.128 186.884 464.888 186.244ZM547.74 186.004C545.9 186.004 544.3 185.324 542.94 183.964C541.66 182.604 541.02 181.004 541.02 179.164V105.244C541.02 103.404 541.66 101.804 542.94 100.444C544.3 99.0845 545.9 98.4045 547.74 98.4045H590.22C592.06 98.4045 593.62 99.0845 594.9 100.444C596.26 101.804 596.94 103.404 596.94 105.244V108.004C596.94 109.844 596.26 111.444 594.9 112.804C593.62 114.164 592.06 114.844 590.22 114.844H562.38C561.74 114.844 561.42 115.164 561.42 115.804V131.644C561.42 132.364 561.74 132.724 562.38 132.724H587.82C589.66 132.724 591.22 133.404 592.5 134.764C593.86 136.124 594.54 137.724 594.54 139.564V141.364C594.54 143.204 593.86 144.804 592.5 146.164C591.22 147.524 589.66 148.204 587.82 148.204H562.38C561.74 148.204 561.42 148.524 561.42 149.164V168.604C561.42 169.244 561.74 169.564 562.38 169.564H590.22C592.06 169.564 593.62 170.244 594.9 171.604C596.26 172.964 596.94 174.564 596.94 176.404V179.164C596.94 181.004 596.26 182.604 594.9 183.964C593.62 185.324 592.06 186.004 590.22 186.004H547.74ZM631.576 179.524L607.336 104.884C606.776 103.284 606.976 101.804 607.936 100.444C608.976 99.0845 610.336 98.4045 612.016 98.4045H620.056C622.056 98.4045 623.856 99.0445 625.456 100.324C627.056 101.524 628.096 103.084 628.576 105.004L644.296 166.324C644.296 166.404 644.336 166.444 644.416 166.444C644.496 166.444 644.536 166.404 644.536 166.324L660.736 105.004C661.216 103.084 662.256 101.524 663.856 100.324C665.456 99.0445 667.256 98.4045 669.256 98.4045H676.816C678.496 98.4045 679.816 99.0845 680.776 100.444C681.816 101.804 682.056 103.284 681.496 104.884L657.256 179.524C656.696 181.444 655.576 183.004 653.896 184.204C652.296 185.404 650.456 186.004 648.376 186.004H640.456C638.456 186.004 636.616 185.404 634.936 184.204C633.336 183.004 632.216 181.444 631.576 179.524ZM738.025 179.284L723.265 105.124C722.865 103.364 723.225 101.804 724.345 100.444C725.545 99.0845 727.025 98.4045 728.785 98.4045H735.745C737.665 98.4045 739.385 99.0445 740.905 100.324C742.425 101.604 743.305 103.204 743.545 105.124L751.705 165.124C751.705 165.204 751.745 165.244 751.825 165.244C751.905 165.244 751.945 165.204 751.945 165.124L759.385 105.124C759.625 103.204 760.465 101.604 761.905 100.324C763.345 99.0445 765.025 98.4045 766.945 98.4045H778.225C780.145 98.4045 781.825 99.0445 783.265 100.324C784.705 101.604 785.545 103.204 785.785 105.124L793.225 165.124C793.225 165.204 793.265 165.244 793.345 165.244C793.425 165.244 793.465 165.204 793.465 165.124L801.625 105.124C801.865 103.204 802.745 101.604 804.265 100.324C805.785 99.0445 807.505 98.4045 809.425 98.4045H815.905C817.665 98.4045 819.105 99.0845 820.225 100.444C821.345 101.804 821.745 103.364 821.425 105.124L806.665 179.284C806.265 181.204 805.305 182.804 803.785 184.084C802.265 185.364 800.505 186.004 798.505 186.004H788.305C786.385 186.004 784.665 185.364 783.145 184.084C781.705 182.804 780.865 181.204 780.625 179.284L772.465 119.284C772.465 119.204 772.425 119.164 772.345 119.164C772.265 119.164 772.225 119.204 772.225 119.284L764.065 179.284C763.825 181.204 762.945 182.804 761.425 184.084C759.985 185.364 758.305 186.004 756.385 186.004H746.185C744.185 186.004 742.385 185.364 740.785 184.084C739.265 182.804 738.345 181.204 738.025 179.284ZM841.177 186.004C839.337 186.004 837.737 185.324 836.377 183.964C835.097 182.604 834.457 181.004 834.457 179.164V105.244C834.457 103.404 835.097 101.804 836.377 100.444C837.737 99.0845 839.337 98.4045 841.177 98.4045H883.657C885.497 98.4045 887.057 99.0845 888.337 100.444C889.697 101.804 890.377 103.404 890.377 105.244V108.004C890.377 109.844 889.697 111.444 888.337 112.804C887.057 114.164 885.497 114.844 883.657 114.844H855.817C855.177 114.844 854.857 115.164 854.857 115.804V131.644C854.857 132.364 855.177 132.724 855.817 132.724H881.257C883.097 132.724 884.657 133.404 885.937 134.764C887.297 136.124 887.977 137.724 887.977 139.564V141.364C887.977 143.204 887.297 144.804 885.937 146.164C884.657 147.524 883.097 148.204 881.257 148.204H855.817C855.177 148.204 854.857 148.524 854.857 149.164V168.604C854.857 169.244 855.177 169.564 855.817 169.564H883.657C885.497 169.564 887.057 170.244 888.337 171.604C889.697 172.964 890.377 174.564 890.377 176.404V179.164C890.377 181.004 889.697 182.604 888.337 183.964C887.057 185.324 885.497 186.004 883.657 186.004H841.177ZM927.505 148.804V169.924C927.505 170.644 927.865 171.084 928.585 171.244C930.265 171.564 932.305 171.724 934.705 171.724C940.385 171.724 944.545 170.684 947.185 168.604C949.825 166.444 951.145 163.164 951.145 158.764C951.145 151.404 945.145 147.724 933.145 147.724H928.465C927.825 147.724 927.505 148.084 927.505 148.804ZM927.505 114.484V132.124C927.505 132.764 927.825 133.084 928.465 133.084H931.465C943.145 133.084 948.985 129.604 948.985 122.644C948.985 116.004 944.105 112.684 934.345 112.684C932.025 112.684 930.065 112.844 928.465 113.164C927.825 113.324 927.505 113.764 927.505 114.484ZM914.185 186.244C912.265 186.084 910.665 185.244 909.385 183.724C908.105 182.204 907.465 180.484 907.465 178.564V105.844C907.465 103.844 908.105 102.124 909.385 100.684C910.745 99.1645 912.385 98.3245 914.305 98.1645C920.545 97.5245 926.665 97.2045 932.665 97.2045C955.865 97.2045 967.465 104.684 967.465 119.644C967.465 124.684 965.825 128.964 962.545 132.484C959.345 136.004 955.025 138.244 949.585 139.204C949.505 139.204 949.465 139.284 949.465 139.444C949.465 139.524 949.545 139.564 949.705 139.564C956.025 140.444 961.025 142.844 964.705 146.764C968.465 150.684 970.345 155.364 970.345 160.804C970.345 169.684 967.385 176.324 961.465 180.724C955.625 185.044 946.425 187.204 933.865 187.204C927.545 187.204 920.985 186.884 914.185 186.244Z" fill="white"/>
<defs>
<clipPath id="clip0">
<rect width="257.871" height="266" fill="white"/>
</clipPath>
</defs>
</svg>
